<?xml version="1.0" encoding="UTF-8" standalone="no"?><!DOCTYPE svg PUBLIC "-//W3C//DTD SVG 1.1//EN" "http://www.w3.org/Graphics/SVG/1.1/DTD/svg11.dtd"><svg width="100%" height="100%" viewBox="0 0 497 504" version="1.1" xmlns="http://www.w3.org/2000/svg" xmlns:xlink="http://www.w3.org/1999/xlink" xml:space="preserve" xmlns:serif="http://www.serif.com/" style="fill-rule:evenodd;clip-rule:evenodd;stroke-linecap:round;stroke-linejoin:round;stroke-miterlimit:1.5;"><g><path d="M248.28,-0c137.029,-0 248.28,96.086 248.28,214.437c0,49.071 -85.365,77.796 -185.306,86.175c-19.073,1.599 23.29,141.712 -14.89,187.628c-13.922,16.744 -71.657,23.125 -102.083,2.671c-33.12,-22.265 -2.133,-189.445 -22.692,-191.587c-93.91,-9.782 -171.589,-38.077 -171.589,-84.887c-0,-118.351 111.251,-214.437 248.28,-214.437Z" style="fill:url(#_Linear1);"/><g><ellipse cx="232.789" cy="47.719" rx="12.173" ry="12.885" style="fill:#ffa8a0;fill-opacity:0.47;"/><ellipse cx="390.611" cy="219.179" rx="12.173" ry="12.885" style="fill:#ffa8a0;fill-opacity:0.47;"/><ellipse cx="63.732" cy="216.248" rx="12.173" ry="12.885" style="fill:#ffa8a0;fill-opacity:0.47;"/><ellipse cx="242.196" cy="206.576" rx="12.173" ry="12.885" style="fill:#ffa8a0;fill-opacity:0.47;"/><ellipse cx="381.204" cy="94.614" rx="12.173" ry="12.885" style="fill:#ffa8a0;fill-opacity:0.47;"/><ellipse cx="95.871" cy="80.839" rx="12.173" ry="12.885" style="fill:#ffa8a0;fill-opacity:0.47;"/><ellipse cx="454.628" cy="152.647" rx="12.173" ry="12.885" style="fill:#ffa8a0;fill-opacity:0.47;"/><ellipse cx="170.079" cy="160.853" rx="12.173" ry="12.885" style="fill:#ffa8a0;fill-opacity:0.47;"/><ellipse cx="142.643" cy="245.851" rx="12.173" ry="12.885" style="fill:#ffa8a0;fill-opacity:0.47;"/></g><g><ellipse cx="145.29" cy="118.75" rx="24.103" ry="22.371" style="fill:#d7ffff;stroke:#7d7b7b;stroke-width:0.5px;"/><ellipse cx="144.968" cy="118.296" rx="16.061" ry="14.907" style="stroke:#7d7b7b;stroke-width:0.5px;"/></g><g><ellipse cx="310.41" cy="119.35" rx="24.343" ry="22.971" style="fill:#d7ffff;stroke:#7d7b7b;stroke-width:0.5px;"/><ellipse cx="310.18" cy="118.301" rx="16.221" ry="15.307" style="stroke:#7d7b7b;stroke-width:0.5px;"/></g></g><defs><linearGradient id="_Linear1" x1="0" y1="0" x2="1" y2="0" gradientUnits="userSpaceOnUse" gradientTransform="matrix(0.643618,-293.275,342.087,0.75074,241.2,276.48)"><stop offset="0" style="stop-color:#edeeef;stop-opacity:1"/><stop offset="1" style="stop-color:#fdb875;stop-opacity:1"/></linearGradient></defs></svg>